<svg width="304" height="300" viewBox="0 0 304 300" fill="none" xmlns="http://www.w3.org/2000/svg">
<path d="M303.717 275.749C303.717 289.142 293.044 300 279.879 300C266.713 300 256.04 289.142 256.04 275.749C256.04 262.355 266.713 251.497 279.879 251.497C293.044 251.497 303.717 262.355 303.717 275.749Z" fill="#A7B5F5"/>
<path d="M240.36 266.468C269.906 242.072 289.038 206.999 293.752 168.584C298.467 130.169 288.399 91.387 265.656 60.3491C242.912 29.3112 209.253 8.42103 171.719 2.0474C134.185 -4.32623 95.6815 4.31035 64.262 26.1509C32.8426 47.9915 10.94 81.3445 3.1351 119.235C-4.66984 157.125 2.22726 196.618 22.384 229.454C42.5407 262.29 74.3959 285.927 111.288 295.42C148.179 304.913 192.472 298.204 226.643 275.749L196.276 237.359C174.113 250.181 147.937 253.788 123.22 247.428C98.5035 241.068 77.1613 225.232 63.6568 203.232C50.1523 181.233 45.5314 154.774 50.7605 129.388C55.9896 104.003 70.6638 81.6568 91.7141 67.0241C112.764 52.3915 138.561 46.6052 163.708 50.8753C188.855 55.1455 211.405 69.1415 226.643 89.9361C241.881 110.731 248.626 136.714 245.467 162.451C244.353 171.525 242.039 180.321 238.642 188.623L224.73 171.561C229.284 155.158 228.74 137.724 223.174 121.648C217.608 105.572 207.291 91.64 193.638 81.7615C179.985 71.883 163.663 66.5413 146.909 66.4683C130.155 66.3952 113.789 71.5945 100.053 81.3537C86.3175 91.1128 75.884 104.954 70.1826 120.981C64.4813 137.009 63.7909 154.437 68.2062 170.879C72.6214 187.321 81.9263 201.972 94.8457 212.824L124.959 175.719C119.563 171.186 115.676 165.067 113.831 158.199C111.987 151.331 112.276 144.051 114.657 137.356C117.039 130.661 121.397 124.879 127.134 120.803C132.872 116.726 139.708 114.554 146.707 114.585C153.705 114.615 160.523 116.847 166.226 120.973C171.929 125.1 176.238 130.919 178.563 137.634C180.888 144.35 181.115 151.632 179.213 158.484C177.311 165.335 173.373 171.421 167.939 175.907L197.738 213.272L209.695 228.031L240.36 266.468Z" fill="#A7B5F5"/>
</svg>
