<svg width="121" height="118" viewBox="0 0 121 118" fill="none" xmlns="http://www.w3.org/2000/svg">
<path fill-rule="evenodd" clip-rule="evenodd" d="M60.4 0C27.1 0 0 27 0 60.4C0 87.1 17.3 109.7 41.3 117.7C44.3 118.3 45.4 116.4 45.4 114.8C45.4 113.4 45.3 108.6 45.3 103.6C28.5 107.3 25 96.5 25 96.5C22.3 89.5 18.3 87.7 18.3 87.7C12.8 84 18.7 84 18.7 84C24.8 84.4 28 90.2 28 90.2C33.4 99.4 42.1 96.8 45.6 95.2C46.1 91.3 47.7 88.6 49.4 87.1C36 85.6 21.9 80.4 21.9 57.3C21.9 50.7 24.3 45.3 28.1 41.1C27.5 39.6 25.4 33.4 28.7 25.1C28.7 25.1 33.8 23.5 45.3 31.3C50.1 30 55.3 29.3 60.4 29.3C65.5 29.3 70.7 30 75.5 31.3C87 23.5 92.1 25.1 92.1 25.1C95.4 33.4 93.3 39.6 92.7 41.1C96.6 45.3 98.9 50.7 98.9 57.3C98.9 80.5 84.8 85.6 71.3 87.1C73.5 89 75.4 92.6 75.4 98.3C75.4 106.4 75.3 112.9 75.3 114.9C75.3 116.5 76.4 118.4 79.4 117.8C103.4 109.8 120.7 87.2 120.7 60.5C120.8 27.1 93.8 0 60.4 0Z" fill="white"/>
<path d="M22.9001 86.7003C22.8001 87.0003 22.3001 87.1003 21.9001 86.9003C21.5001 86.7003 21.2001 86.3003 21.4001 86.0003C21.5001 85.7003 22.0001 85.6003 22.4001 85.8003C22.8001 86.0003 23.0001 86.4003 22.9001 86.7003Z" fill="white"/>
<path d="M25.3 89.5003C25 89.8003 24.4 89.6003 24.1 89.2003C23.7 88.8003 23.6 88.2003 23.9 87.9003C24.2 87.6003 24.7 87.8003 25.1 88.2003C25.6 88.6003 25.6 89.2003 25.3 89.5003Z" fill="white"/>
<path d="M27.7001 92.8996C27.3001 93.1996 26.7001 92.8996 26.4001 92.3996C26.0001 91.8996 26.0001 91.1996 26.4001 90.9996C26.8001 90.6996 27.4001 90.9996 27.7001 91.4996C28.1001 91.9996 28.1001 92.6996 27.7001 92.8996Z" fill="white"/>
<path d="M31 96.3003C30.7 96.7003 30 96.6003 29.4 96.1003C28.9 95.6003 28.7 94.9003 29.1 94.6003C29.4 94.2003 30.1 94.3003 30.7 94.8003C31.2 95.2003 31.3 95.9003 31 96.3003Z" fill="white"/>
<path d="M35.5001 98.3001C35.4001 98.8001 34.7001 99.0001 34.0001 98.8001C33.3001 98.6001 32.9001 98.0001 33.0001 97.6001C33.1001 97.1001 33.8001 96.9001 34.5001 97.1001C35.2001 97.2001 35.6001 97.8001 35.5001 98.3001Z" fill="white"/>
<path d="M40.3998 98.6002C40.3998 99.1002 39.7998 99.5002 39.0998 99.5002C38.3998 99.5002 37.7998 99.1002 37.7998 98.6002C37.7998 98.1002 38.3998 97.7002 39.0998 97.7002C39.7998 97.7002 40.3998 98.1002 40.3998 98.6002Z" fill="white"/>
<path d="M45 97.8002C45.1 98.3002 44.6 98.8002 43.9 98.9002C43.2 99.0002 42.6 98.7002 42.5 98.2002C42.4 97.7002 42.9 97.2002 43.6 97.1002C44.3 97.0002 44.9 97.3002 45 97.8002Z" fill="white"/>
</svg>
