<svg width="192" height="192" viewBox="0 0 192 192" fill="none" xmlns="http://www.w3.org/2000/svg">
<path fill-rule="evenodd" clip-rule="evenodd" d="M95.876 21C54.595 21 21 55.322 21 97.7797C21 131.72 42.4463 160.449 72.1983 170.619C75.9174 171.381 77.281 168.966 77.281 166.932C77.281 165.153 77.157 159.051 77.157 152.695C56.3306 157.398 51.9917 143.669 51.9917 143.669C48.6446 134.771 43.6859 132.483 43.6859 132.483C36.8678 127.78 44.1818 127.78 44.1818 127.78C51.7438 128.288 55.7107 135.661 55.7107 135.661C62.405 147.356 73.1901 144.051 77.5289 142.017C78.1488 137.059 80.1322 133.627 82.2397 131.72C65.6281 129.814 48.1488 123.203 48.1488 93.839C48.1488 85.4492 51.124 78.5847 55.8347 73.2458C55.0909 71.339 52.4876 63.4576 56.5785 52.9068C56.5785 52.9068 62.9008 50.8729 77.157 60.7881C83.1074 59.1356 89.5537 58.2458 95.876 58.2458C102.198 58.2458 108.645 59.1356 114.595 60.7881C128.851 50.8729 135.174 52.9068 135.174 52.9068C139.264 63.4576 136.661 71.339 135.917 73.2458C140.752 78.5847 143.603 85.4492 143.603 93.839C143.603 123.331 126.124 129.814 109.388 131.72C112.116 134.136 114.471 138.712 114.471 145.958C114.471 156.254 114.347 164.517 114.347 167.059C114.347 169.093 115.711 171.508 119.43 170.746C149.182 160.576 170.628 131.847 170.628 97.9068C170.752 55.4492 137.281 21 95.876 21Z" fill="white"/>
<path d="M49.3885 131.212C49.2645 131.594 48.6447 131.721 48.1488 131.466C47.653 131.212 47.2811 130.704 47.529 130.322C47.653 129.941 48.2728 129.814 48.7687 130.068C49.2645 130.322 49.5125 130.831 49.3885 131.212Z" fill="white"/>
<path d="M52.3636 134.772C51.9917 135.153 51.2479 134.899 50.876 134.39C50.3802 133.882 50.2562 133.119 50.6281 132.738C51 132.356 51.6198 132.611 52.1157 133.119C52.7355 133.627 52.7355 134.39 52.3636 134.772Z" fill="white"/>
<path d="M55.3389 139.093C54.8431 139.474 54.0993 139.093 53.7274 138.457C53.2315 137.822 53.2315 136.932 53.7274 136.677C54.2232 136.296 54.967 136.677 55.3389 137.313C55.8348 137.949 55.8348 138.838 55.3389 139.093Z" fill="white"/>
<path d="M59.4297 143.416C59.0578 143.924 58.19 143.797 57.4462 143.161C56.8264 142.526 56.5785 141.636 57.0743 141.255C57.4462 140.746 58.314 140.873 59.0578 141.509C59.6776 142.017 59.8016 142.907 59.4297 143.416Z" fill="white"/>
<path d="M65.0084 145.958C64.8844 146.593 64.0167 146.848 63.1489 146.593C62.2811 146.339 61.7853 145.576 61.9092 145.068C62.0332 144.432 62.901 144.178 63.7687 144.432C64.6365 144.559 65.1324 145.322 65.0084 145.958Z" fill="white"/>
<path d="M71.0824 146.339C71.0824 146.975 70.3386 147.483 69.4708 147.483C68.6031 147.483 67.8593 146.975 67.8593 146.339C67.8593 145.704 68.6031 145.195 69.4708 145.195C70.3386 145.195 71.0824 145.704 71.0824 146.339Z" fill="white"/>
<path d="M76.7851 145.322C76.9091 145.958 76.2893 146.593 75.4215 146.721C74.5537 146.848 73.8099 146.466 73.686 145.831C73.562 145.195 74.1818 144.56 75.0496 144.432C75.9174 144.305 76.6612 144.687 76.7851 145.322Z" fill="white"/>
</svg>
